<?xml version="1.0" encoding="UTF-8"?>
<svg xmlns="http://www.w3.org/2000/svg" xmlns:xlink="http://www.w3.org/1999/xlink" version="1.1" id="Layer_1" x="0px" y="0px" width="100%" viewBox="0 0 1600 1600" enable-background="new 0 0 1600 1600" xml:space="preserve" style="background: transparent;">
<path fill="#000000" opacity="1.000000" stroke="none" d=" M893.000000,1601.000000   C595.333374,1601.000000 298.166779,1601.000000 1.000120,1601.000000   C1.000080,1067.666870 1.000080,534.333618 1.000040,1.000334   C534.333069,1.000223 1067.666138,1.000223 1600.999512,1.000111   C1600.999634,534.333008 1600.999634,1067.666016 1600.999756,1600.999512   C1365.166626,1601.000000 1129.333374,1601.000000 893.000000,1601.000000  M738.085571,739.182312   C738.085571,739.182312 738.108948,739.466492 737.856323,740.163025   C737.839355,743.256165 737.670715,746.358093 737.848206,749.440063   C738.023987,752.493347 738.548462,755.526672 739.849243,758.762817   C755.630676,758.696838 771.412048,758.630859 787.951233,758.832703   C795.869202,758.832703 803.787109,758.832703 812.630798,758.832703   C811.359375,760.800293 810.779785,761.923462 809.994690,762.877563   C799.803345,775.262451 789.540039,787.588257 779.380493,799.999084   C766.659790,815.538452 754.446411,831.521118 741.156128,846.553833   C734.826477,853.713440 736.649231,861.061646 736.469666,868.746399   C773.866150,868.746399 810.615601,868.746399 847.551208,868.746399   C847.551208,861.886780 847.551208,855.352417 847.551208,848.104736   C821.494934,848.104736 795.816223,848.104736 769.274353,848.104736   C770.640930,846.177979 771.316406,845.090454 772.122314,844.110107   C779.392944,835.265686 786.711975,826.461060 793.967957,817.604736   C809.481873,798.669006 824.593384,779.384705 840.650757,760.922485   C846.910583,753.725098 845.340637,746.416626 845.349243,738.203918   C842.148499,738.203918 839.512695,738.189575 836.877014,738.206299   C820.235535,738.311829 803.594116,738.424194 786.039795,738.334045   C770.328918,738.407288 754.617981,738.480469 738.571594,738.368896   C738.263916,738.476990 738.170715,738.682556 738.085571,739.182312  M1026.596802,863.775391   C1045.503296,872.272888 1064.799683,873.388367 1084.500488,866.831055   C1131.826294,851.078857 1140.395874,796.951477 1118.356934,765.871765   C1102.364746,743.319275 1079.650879,735.009705 1052.617676,736.841553   C1019.580261,739.080200 994.436768,762.038208 989.549500,794.586914   C985.269897,823.089111 1000.182495,851.329163 1026.596802,863.775391  M624.920288,783.500000   C624.920288,811.912781 624.920288,840.325500 624.920288,868.707764   C657.920837,868.707764 690.298462,868.707764 722.987183,868.707764   C722.987183,863.544861 722.740479,858.706970 723.062073,853.907104   C723.339661,849.764404 721.958923,848.506104 717.759216,848.543579   C696.774902,848.731323 675.787720,848.607056 654.801575,848.592834   C653.035278,848.591675 651.269043,848.592712 649.502197,848.592712   C649.502197,836.334473 649.502197,824.761169 649.502197,812.681519   C670.379211,812.681519 690.970337,812.681519 712.210205,812.681519   C712.210205,807.056152 712.053345,801.922058 712.266113,796.803345   C712.404724,793.468201 711.134338,792.551636 707.903259,792.573914   C690.582275,792.693115 673.259827,792.606750 655.937927,792.592041   C653.827515,792.590210 651.717041,792.591797 649.450439,792.591797   C649.450439,781.079468 649.450439,770.173462 649.450439,758.639771   C673.053711,758.639771 696.423218,758.639771 719.945435,758.639771   C719.945435,751.571411 719.945435,745.134338 719.945435,738.424438   C688.240662,738.424438 656.850342,738.424438 624.920288,738.424438   C624.920288,753.283630 624.920288,767.891785 624.920288,783.500000  M892.522034,773.083069   C899.092896,765.491394 907.409546,760.852905 917.196045,759.000671   C934.704346,755.686890 950.218811,759.690002 963.132446,772.913391   C968.501465,767.802124 973.387878,763.150330 978.200256,758.568970   C965.054993,739.654846 930.701111,731.254333 903.634521,739.897583   C874.747498,749.122070 856.316467,774.813782 857.021240,804.873596   C857.762939,836.503479 876.584045,860.021423 908.155762,868.768494   C932.869446,875.615540 967.077820,865.922913 977.908325,848.931763   C974.102600,845.067261 970.130737,841.315491 966.504211,837.255249   C963.981018,834.430298 962.317566,834.779663 959.638794,837.254333   C945.875305,849.968933 923.942810,853.252563 907.448914,845.360291   C880.389099,832.412231 873.139221,798.650391 892.522034,773.083069  M435.163086,719.481750   C430.005188,719.656372 424.848145,719.862610 419.689148,719.994873   C416.123901,720.086243 414.044586,722.375549 414.569000,725.368225   C414.973267,727.675171 417.168427,729.947815 419.112152,731.591125   C420.129211,732.451111 422.320099,732.011108 423.980560,732.008423   C445.473816,731.973572 466.967316,731.826294 488.460205,731.886536   C503.063690,731.927490 502.973175,732.052673 502.875549,746.855530   C502.772339,762.510925 502.879730,778.167603 502.859924,793.823730   C502.855225,797.540039 504.431519,799.277527 508.320312,799.162292   C514.145447,798.989624 519.980408,799.184814 525.810303,799.128845   C538.999939,799.002197 550.598267,789.408752 551.775757,776.185120   C552.835510,764.285034 552.493103,752.243958 552.439209,740.266602   C552.404602,732.588806 553.051025,731.749207 560.842407,731.812805   C576.171021,731.937866 591.500488,732.014465 606.829468,731.991943   C612.189941,731.984070 614.809570,729.731079 614.563721,725.652039   C614.272949,720.827454 611.068726,719.832886 606.913513,719.844910   C588.748779,719.897522 570.583618,719.799988 552.418945,719.864441   C543.571655,719.895813 539.510620,724.181702 539.507507,733.209351   C539.503174,745.690613 539.485291,758.172180 539.569763,770.652954   C539.669922,785.450684 528.999268,788.035583 518.378296,787.099792   C517.330139,787.007446 515.952515,785.427612 515.569153,784.261536   C515.016174,782.579407 515.138611,780.643982 515.137573,778.816589   C515.129089,764.319580 515.326965,749.820190 515.121826,735.326355   C514.974976,724.948975 509.938660,720.183716 499.564972,719.847900   C498.233337,719.804749 496.898804,719.859253 495.565704,719.851746   C475.738892,719.740540 455.912109,719.626404 435.163086,719.481750  M573.486267,680.261719   C578.141174,680.234009 582.839539,680.593567 587.439636,680.077576   C592.832886,679.472778 595.175171,674.731506 591.972656,670.742188   C590.624512,669.062866 587.408813,668.162476 585.031189,668.141541   C561.889221,667.937744 538.744873,667.976013 515.601257,667.985596   C499.450317,667.992310 483.299408,668.081482 467.148468,668.088013   C463.619080,668.089417 461.037750,668.985107 460.331207,673.026306   C459.415039,678.266296 461.895721,680.538391 469.696106,680.532410   C503.987244,680.506042 538.278259,680.366028 573.486267,680.261719  M489.585602,834.484375   C489.697876,812.194824 489.811188,789.905334 489.921783,767.615784   C489.949005,762.130005 490.058838,756.642517 489.959686,751.158936   C489.886383,747.105286 488.675964,743.899780 483.639191,744.101685   C478.535583,744.306335 476.879700,745.844421 476.729858,751.128235   C476.645142,754.116150 476.866852,757.111328 476.866669,760.103271   C476.864838,788.545776 476.833771,816.988220 476.841125,845.430725   C476.842407,850.420715 479.312653,853.561646 482.986359,853.467285   C486.554016,853.375793 489.467346,849.924744 489.587311,845.457520   C489.676605,842.133362 489.586700,838.804443 489.585602,834.484375  M454.725586,705.773132   C456.848358,706.079651 458.970062,706.644775 461.094086,706.653564   C488.751831,706.768738 516.409912,706.831665 544.067932,706.830322   C547.886475,706.830139 551.710938,706.486084 555.521851,706.169922   C559.471924,705.842285 560.142944,703.067444 560.165466,699.759521   C560.188721,696.349365 558.273926,694.983826 555.213257,694.748413   C553.222168,694.595398 551.220886,694.509155 549.224060,694.507202   C528.729675,694.487488 508.235352,694.502258 487.740997,694.483337   C478.247772,694.474609 468.743744,694.120911 459.265045,694.473389   C452.381500,694.729431 450.380798,699.478088 454.725586,705.773132  M632.991455,912.449097   C631.414001,910.516602 629.546631,908.751343 628.315857,906.618774   C625.199890,901.219604 620.619263,901.341248 615.618896,902.479736   C615.618896,918.095032 615.618896,933.446533 615.618896,948.772278   C619.319763,948.772278 622.577087,948.772278 626.556519,948.772278   C626.556519,939.996643 626.556519,931.516602 626.556519,921.539856   C628.710266,923.913635 629.823975,925.048828 630.833801,926.269775   C635.708557,932.164124 640.938782,937.815002 645.289734,944.075745   C648.718079,949.008911 652.773987,950.004700 658.384583,948.545715   C658.384583,933.249451 658.384583,917.869263 658.384583,902.406799   C654.687622,902.406799 651.317749,902.406799 647.156677,902.406799   C647.156677,911.257568 647.156677,919.707031 647.156677,928.156433   C646.789001,928.217712 646.421265,928.278992 646.053589,928.340271   C641.850281,923.227356 637.647034,918.114441 632.991455,912.449097  M1049.079712,936.216309   C1055.849243,934.240173 1058.930420,938.545898 1062.040161,943.429199   C1066.125977,949.845398 1068.853027,950.535034 1076.926880,947.924316   C1074.421021,944.291260 1072.072998,940.705627 1069.529053,937.264771   C1067.913940,935.080261 1067.990967,933.566040 1070.315674,931.911560   C1076.568237,927.461609 1077.920898,921.177673 1076.040283,914.168945   C1074.131714,907.055908 1068.860596,903.347107 1061.835815,902.699585   C1054.721680,902.043762 1047.526611,902.322693 1040.383179,901.909180   C1036.471802,901.682739 1035.662476,903.362793 1035.714844,906.910278   C1035.896973,919.240540 1035.776611,931.575195 1035.808716,943.908020   C1035.812866,945.495117 1036.037476,947.081665 1036.166504,948.754272   C1039.941406,948.754272 1043.203979,948.754272 1046.304443,948.754272   C1046.975952,944.464355 1047.600220,940.475708 1049.079712,936.216309  M571.992676,936.655762   C571.992676,934.544556 571.992676,932.433289 571.992676,930.189575   C579.407532,930.189575 586.163025,930.189575 593.492126,930.189575   C593.492126,936.513550 593.492126,942.593567 593.492126,948.725464   C597.327820,948.725464 600.584961,948.725464 603.741394,948.725464   C603.741394,933.064514 603.741394,917.687744 603.741394,902.353455   C600.199097,902.353455 597.102478,902.353455 593.301758,902.353455   C593.301758,908.521973 593.301758,914.424927 593.301758,920.236816   C585.846741,920.236816 579.111206,920.236816 571.874939,920.236816   C571.874939,914.066956 571.874939,908.300659 571.874939,902.332764   C568.123718,902.332764 564.889771,902.332764 561.457764,902.332764   C561.457764,917.998352 561.457764,933.375366 561.457764,948.759949   C565.075562,948.759949 568.341553,948.759949 571.996704,948.759949   C571.996704,944.872620 571.996704,941.232239 571.992676,936.655762  M526.875244,845.674561   C527.163269,841.388367 527.689941,837.102478 527.696838,832.815857   C527.722595,816.870056 524.540588,813.769775 508.828217,814.012329   C508.661957,814.014893 508.495575,814.013306 508.329498,814.020325   C502.459015,814.268066 499.696747,817.786499 502.293915,822.908325   C503.314941,824.921875 506.996704,825.637146 509.525452,826.818054   C511.366302,827.677673 514.127136,827.786194 515.047119,829.176392   C518.130737,833.836182 515.092957,841.684448 509.984436,844.260010   C504.983521,846.781372 500.334351,850.082581 499.599274,856.123413   C499.021851,860.868530 499.157593,865.757935 499.513885,870.543213   C499.873718,875.375671 502.668274,877.429749 507.258606,876.665405   C511.502136,875.958862 512.999023,873.172607 512.387817,869.039856   C512.120728,867.233826 512.021790,865.403442 511.816437,863.587524   C511.317627,859.177124 513.261230,856.830566 517.290833,854.743530   C520.874939,852.887146 523.523987,849.225525 526.875244,845.674561  M477.978088,916.478516   C477.978088,914.725342 477.978088,912.972168 477.978088,910.768372   C486.501678,910.768372 494.263519,910.768372 502.179260,910.768372   C502.179260,907.622986 502.179260,904.948425 502.179260,902.250427   C490.262024,902.250427 478.815918,902.250427 467.254639,902.250427   C467.254639,917.914185 467.254639,933.316467 467.254639,948.817749   C479.351440,948.817749 491.117981,948.817749 503.033875,948.817749   C503.033875,945.826721 503.033875,943.071106 503.033875,939.901306   C494.622559,939.901306 486.518494,939.901306 478.300934,939.901306   C478.300934,936.245483 478.300934,933.013550 478.300934,929.193848   C485.535522,929.193848 492.446014,929.193848 499.342957,929.193848   C499.342957,926.178467 499.342957,923.758728 499.342957,920.954468   C493.038116,920.954468 487.063019,920.812195 481.099701,921.015625   C478.197876,921.114685 477.709137,919.750854 477.978088,916.478516  M999.574219,949.055115   C1008.650696,949.055115 1017.727173,949.055115 1026.886719,949.055115   C1026.886719,945.699707 1026.886719,943.126587 1026.886719,940.027527   C1019.695129,940.027527 1012.894409,939.826843 1006.112854,940.100525   C1001.831726,940.273254 1001.772217,937.861450 1001.716492,934.757568   C1001.658569,931.523254 1002.008484,929.272522 1006.173096,929.464233   C1011.759033,929.721375 1017.365784,929.527954 1023.099060,929.527954   C1023.099060,926.280029 1023.099060,923.866577 1023.099060,920.944092   C1017.163879,920.944092 1011.534119,920.773132 1005.921265,921.007568   C1002.494934,921.150635 1001.533081,919.705872 1001.753052,916.596436   C1001.950073,913.811890 1001.231628,910.725098 1005.789856,910.905090   C1010.772766,911.101746 1015.770203,910.904297 1020.760681,910.948730   C1023.847168,910.976196 1026.605713,911.364990 1026.633057,906.586243   C1026.658813,902.060364 1024.379150,901.914673 1021.038391,901.959900   C1012.555359,902.074951 1004.065735,902.151978 995.587219,901.926270   C991.990845,901.830566 990.556824,902.772888 990.613403,906.619263   C990.801697,919.426270 990.655029,932.238037 990.692139,945.047791   C990.695740,946.290649 991.082336,947.532471 991.338379,949.055786   C993.981262,949.055786 996.292053,949.055786 999.574219,949.055115  M942.258057,936.482666   C942.258057,940.562683 942.258057,944.642761 942.258057,948.723755   C946.398071,948.723755 949.636841,948.723755 953.038208,948.723755   C953.145996,947.056641 953.285522,945.742615 953.307068,944.426636   C953.441650,936.222778 953.435303,936.313293 961.385071,936.094421   C964.529907,936.007874 967.748474,935.762268 970.781250,934.990601   C978.867432,932.933289 983.436707,926.647034 983.191589,918.476074   C982.945190,910.261414 978.110657,904.123474 969.688416,903.013733   C962.135376,902.018555 954.418091,902.326172 946.787170,901.840637   C943.178223,901.610962 942.199585,903.110413 942.249084,906.490479   C942.390686,916.154053 942.271729,925.821533 942.258057,936.482666  M862.585754,930.382568   C869.566833,929.844482 876.547913,929.306396 883.521484,928.768921   C883.521484,926.106689 883.521484,923.846130 883.521484,920.943970   C876.339539,920.943970 869.445740,920.943970 862.492065,920.943970   C862.320557,919.333130 862.151489,918.355103 862.122314,917.372864   C861.930237,910.919617 861.940125,910.913574 868.223877,910.883728   C872.055115,910.865540 875.886414,910.873291 879.717712,910.860352   C887.627808,910.833618 887.935608,910.429443 885.891113,902.027161   C876.259766,902.027161 866.468628,902.235718 856.693359,901.931274   C852.379211,901.796875 850.873108,902.938599 850.984192,907.451355   C851.283508,919.603943 851.085144,931.768616 851.111511,943.928467   C851.114990,945.524536 851.277588,947.120178 851.361267,948.623047   C863.666382,948.623047 875.386169,948.623047 887.196655,948.623047   C887.196655,945.637024 887.196655,943.069702 887.196655,939.884033   C878.734497,939.884033 870.657043,939.884033 862.232910,939.884033   C862.232910,936.634888 862.232910,933.996277 862.585754,930.382568  M1134.230713,949.260986   C1139.495239,948.958130 1144.885254,949.262024 1149.994385,948.206726   C1157.220093,946.714294 1160.973755,941.768250 1161.079590,935.356201   C1161.182007,929.147705 1157.761353,925.174255 1150.269409,922.905457   C1146.132080,921.652466 1141.865723,920.744751 1137.868408,919.152161   C1136.370728,918.555420 1134.328247,916.216187 1134.564453,915.101807   C1134.925537,913.398193 1136.821167,911.205688 1138.472534,910.772095   C1141.259521,910.040405 1144.402466,910.222656 1147.326904,910.581360   C1150.204834,910.934326 1152.997314,911.984375 1155.737793,912.705078   C1159.384521,906.237000 1159.432007,905.707947 1156.653931,904.020996   C1149.474609,899.661682 1134.543701,900.429749 1127.977539,905.496216   C1120.316895,911.407288 1121.796875,923.473816 1130.773560,927.014038   C1134.931152,928.653687 1139.329712,929.693787 1143.641602,930.926758   C1146.568359,931.763733 1150.095825,932.469116 1149.721802,936.262451   C1149.350098,940.032959 1145.950806,941.357056 1142.601074,940.912842   C1136.940430,940.162292 1131.355591,938.840393 1125.436768,937.700623   C1121.139282,944.226135 1121.369263,945.032532 1129.086426,947.852234   C1130.486572,948.363892 1131.954834,948.689148 1134.230713,949.260986  M767.398987,905.815125   C766.457153,901.047913 762.701172,902.299683 759.531128,901.987976   C756.234863,901.663940 754.452759,902.836792 753.109314,905.942322   C747.373596,919.200317 741.374329,932.344055 735.509094,945.546326   C735.083191,946.504822 734.960388,947.597839 734.596069,949.021423   C737.531921,949.021423 740.050720,949.296448 742.464844,948.912964   C743.803284,948.700439 745.870728,947.559448 746.064697,946.542358   C747.462280,939.213745 752.368713,938.242310 758.537659,938.980103   C760.339661,939.195557 762.231201,939.255493 764.010254,938.958679   C769.305237,938.074890 772.411377,940.136108 773.957214,945.275085   C774.389038,946.710754 775.924011,948.582153 777.225220,948.831360   C780.054077,949.373047 783.058289,948.998474 786.715088,948.998474   C780.161316,934.330566 773.944641,920.417236 767.398987,905.815125  M913.788574,915.800110   C911.575989,912.885925 909.295898,910.020142 907.165771,907.046936   C903.338562,901.704834 899.159119,900.526123 892.138611,903.195496   C896.463379,909.199463 900.589600,915.235107 905.060608,921.003357   C907.256226,923.836060 907.422180,925.923767 905.135986,928.853333   C900.265625,935.094116 895.789673,941.642883 890.830078,948.511475   C898.194275,949.588745 904.301758,950.118103 907.602966,942.217773   C908.949585,938.994995 911.598145,936.316223 914.074768,932.791687   C916.717712,936.549683 918.826172,939.502808 920.887939,942.488220   C925.874695,949.708862 928.014709,950.484314 937.228577,948.088867   C932.416870,941.368103 927.794861,934.681824 922.904419,928.198059   C921.015869,925.694336 920.749512,923.891663 922.793274,921.251465   C927.345520,915.370850 931.517029,909.195618 935.958191,902.980103   C927.401917,900.721069 925.586670,901.378357 921.188782,907.514404   C919.077393,910.460205 916.721863,913.231018 913.788574,915.800110  M553.474060,909.504395   C544.016357,898.959167 525.872070,898.420898 515.809753,908.386963   C506.348083,917.758057 506.840759,934.529358 516.836304,943.333740   C527.522461,952.746338 545.168579,951.739868 553.542908,941.018494   C551.346191,939.101135 549.140076,937.175598 547.010498,935.316772   C538.792053,941.726929 530.322998,941.968384 524.486877,936.261902   C519.157288,931.050476 518.429382,921.969604 523.174194,916.181946   C529.739441,908.173645 539.051880,909.187683 547.415405,915.468018   C549.288147,913.690369 551.203125,911.872620 553.474060,909.504395  M688.963623,923.054871   C688.691772,936.191406 694.207947,944.595520 705.616272,948.425964   C715.753662,951.829590 727.679382,948.717834 733.277283,940.966248   C731.101257,939.085205 728.903381,937.185181 726.788086,935.356567   C718.813232,941.500366 710.236572,941.849731 704.578979,936.565186   C699.174316,931.517029 698.343323,922.465637 702.736877,916.500427   C708.021240,909.325806 715.119812,908.944458 727.380127,915.341919   C729.319275,913.510010 731.334717,911.606018 733.591614,909.473999   C725.775635,901.536072 716.722778,899.761658 706.707336,902.296204   C696.411804,904.901672 690.652466,911.819397 688.963623,923.054871  M1079.325317,909.078552   C1082.538818,909.673706 1085.742432,910.678772 1088.968506,910.757263   C1092.742554,910.848938 1094.417358,912.087585 1094.341187,916.010132   C1094.186523,923.986572 1094.305664,931.968140 1094.306763,939.947632   C1094.308105,950.181274 1094.305908,950.181274 1105.209961,948.411316   C1105.209961,946.701355 1105.209717,944.899902 1105.210083,943.098450   C1105.212036,933.955261 1105.353882,924.808960 1105.149048,915.670410   C1105.064819,911.915833 1106.459473,910.594360 1110.088501,910.829285   C1113.316040,911.038147 1116.567871,910.873047 1119.633423,910.873047   C1120.971069,901.986023 1120.927002,901.933044 1113.319214,901.933228   C1104.009888,901.933411 1094.689697,902.196228 1085.395386,901.821533   C1080.345459,901.617920 1078.172607,903.099182 1079.325317,909.078552  M423.734436,910.926575   C427.339264,910.926575 430.944061,910.926575 435.121735,910.926575   C435.121735,923.968201 435.121735,936.354248 435.121735,948.705505   C439.106323,948.705505 442.487244,948.705505 446.189209,948.705505   C446.189209,936.060974 446.189209,923.763367 446.189209,910.853638   C451.246033,910.853638 455.987732,910.853638 460.816101,910.853638   C460.816101,907.643799 460.816101,905.055237 460.816101,902.276855   C447.161560,902.276855 433.779022,902.276855 419.785034,902.276855   C421.310669,905.332092 416.884460,909.615295 423.734436,910.926575  M815.946472,940.029114   C811.686768,940.029114 807.427063,940.029114 802.553345,940.029114   C802.553345,927.035095 802.553345,914.811096 802.553345,902.414185   C798.555481,902.414185 795.190857,902.414185 791.729370,902.414185   C791.729370,918.081604 791.729370,933.315735 791.729370,948.747314   C803.267761,948.747314 814.479980,948.747314 825.712280,948.747314   C825.712280,945.733459 825.712280,943.027039 825.712280,940.028503   C822.466248,940.028503 819.650696,940.028503 815.946472,940.029114  M539.188965,831.494934   C539.139771,836.147461 539.031311,840.800232 539.057617,845.452332   C539.084778,850.249695 541.373962,853.035828 545.076111,852.987427   C549.558044,852.928772 552.400024,850.127808 552.424927,845.444153   C552.480408,834.994385 552.446289,824.543945 552.395813,814.093994   C552.374023,809.580750 549.859802,806.723694 546.040649,806.682373   C541.895630,806.637512 539.205505,809.397156 539.137878,814.041077   C539.058044,819.524414 539.156372,825.010254 539.188965,831.494934  M625.629700,706.895569   C629.738770,706.433167 632.557861,704.091431 631.697083,700.055359   C631.247986,697.949646 628.246887,694.932434 626.288147,694.846680   C615.659180,694.381104 604.984985,694.471252 594.354492,694.969971   C592.495972,695.057129 589.294250,698.044678 589.340515,699.615479   C589.405457,701.826233 591.600708,704.340576 593.516541,705.993225   C594.664490,706.983582 597.013977,706.747559 598.827271,706.772095   C607.483398,706.889099 616.140930,706.906677 625.629700,706.895569  M680.758362,926.500000   C680.758362,918.540405 680.758362,910.580811 680.758362,902.352905   C677.009216,902.352905 673.647583,902.352905 669.873474,902.352905   C669.873474,910.342957 669.873474,917.967896 669.873474,925.592773   C669.873474,933.321167 669.873474,941.049622 669.873474,948.703491   C673.850769,948.703491 677.088684,948.703491 680.759460,948.703491   C680.759460,941.406433 680.759460,934.453125 680.758362,926.500000  M396.380463,679.114685   C402.901459,679.563965 409.416931,680.193237 415.945557,680.394958   C419.850464,680.515564 422.205902,678.147034 422.297638,674.227539   C422.394257,670.098938 419.765045,668.286438 415.919403,668.197632   C410.943634,668.082703 405.957733,667.989624 400.986969,668.175537   C394.195465,668.429565 392.296265,672.471375 396.380463,679.114685  M407.437988,694.450989   C404.622437,694.663269 401.476105,694.176208 399.093353,695.303345   C397.096191,696.248108 394.797729,699.098145 394.832642,701.065430   C394.866089,702.948059 397.576904,706.175415 399.386139,706.380249   C405.460999,707.067810 411.677002,706.963867 417.802887,706.582520   C421.808624,706.333191 422.468536,703.021362 422.485138,699.547729   C422.502441,695.923401 420.198334,695.040710 417.302032,694.835815   C414.313416,694.624329 411.312988,694.579773 407.437988,694.450989  M625.801086,668.215027   C621.152039,668.213440 616.501160,668.131409 611.854431,668.235046   C607.963135,668.321838 606.288513,670.743347 606.082031,674.363342   C605.854553,678.351135 608.175659,680.212891 611.799683,680.408325   C616.438232,680.658630 621.101868,680.744751 625.742126,680.568787   C629.524292,680.425293 632.698120,678.953491 632.877258,674.511597   C633.046143,670.324463 630.398926,668.661987 625.801086,668.215027  M434.122162,676.762451   C430.072174,680.695496 429.488953,685.550781 432.649536,689.020691   C435.715210,692.386353 440.077057,692.553833 443.740234,689.312073   C446.679169,686.711182 447.625122,683.522522 445.705017,679.918457   C443.455078,675.695251 439.892670,674.612854 434.122162,676.762451  z"/>
<path fill="#0F5DAF" opacity="1.000000" stroke="none" d=" M1026.257324,863.616699   C1000.182495,851.329163 985.269897,823.089111 989.549500,794.586914   C994.436768,762.038208 1019.580261,739.080200 1052.617676,736.841553   C1079.650879,735.009705 1102.364746,743.319275 1118.356934,765.871765   C1140.395874,796.951477 1131.826294,851.078857 1084.500488,866.831055   C1064.799683,873.388367 1045.503296,872.272888 1026.257324,863.616699  M1031.909546,766.346558   C1005.003906,785.150696 1009.960144,828.675476 1034.135620,842.781921   C1048.893555,851.393127 1076.296631,853.163025 1092.258423,836.476562   C1105.155396,822.994202 1108.909180,800.427368 1101.430298,783.986145   C1088.396240,755.332825 1052.581909,751.848328 1031.909546,766.346558  z"/>
<path fill="#50C4D6" opacity="1.000000" stroke="none" d=" M624.920288,783.000000   C624.920288,767.891785 624.920288,753.283630 624.920288,738.424438   C656.850342,738.424438 688.240662,738.424438 719.945435,738.424438   C719.945435,745.134338 719.945435,751.571411 719.945435,758.639771   C696.423218,758.639771 673.053711,758.639771 649.450439,758.639771   C649.450439,770.173462 649.450439,781.079468 649.450439,792.591797   C651.717041,792.591797 653.827515,792.590210 655.937927,792.592041   C673.259827,792.606750 690.582275,792.693115 707.903259,792.573914   C711.134338,792.551636 712.404724,793.468201 712.266113,796.803345   C712.053345,801.922058 712.210205,807.056152 712.210205,812.681519   C690.970337,812.681519 670.379211,812.681519 649.502197,812.681519   C649.502197,824.761169 649.502197,836.334473 649.502197,848.592712   C651.269043,848.592712 653.035278,848.591675 654.801575,848.592834   C675.787720,848.607056 696.774902,848.731323 717.759216,848.543579   C721.958923,848.506104 723.339661,849.764404 723.062073,853.907104   C722.740479,858.706970 722.987183,863.544861 722.987183,868.707764   C690.298462,868.707764 657.920837,868.707764 624.920288,868.707764   C624.920288,840.325500 624.920288,811.912781 624.920288,783.000000  z"/>
<path fill="#2987C1" opacity="1.000000" stroke="none" d=" M892.282349,773.349182   C873.139221,798.650391 880.389099,832.412231 907.448914,845.360291   C923.942810,853.252563 945.875305,849.968933 959.638794,837.254333   C962.317566,834.779663 963.981018,834.430298 966.504211,837.255249   C970.130737,841.315491 974.102600,845.067261 977.908325,848.931763   C967.077820,865.922913 932.869446,875.615540 908.155762,868.768494   C876.584045,860.021423 857.762939,836.503479 857.021240,804.873596   C856.316467,774.813782 874.747498,749.122070 903.634521,739.897583   C930.701111,731.254333 965.054993,739.654846 978.200256,758.568970   C973.387878,763.150330 968.501465,767.802124 963.132446,772.913391   C950.218811,759.690002 934.704346,755.686890 917.196045,759.000671   C907.409546,760.852905 899.092896,765.491394 892.282349,773.349182  z"/>
<path fill="#3DA0C5" opacity="1.000000" stroke="none" d=" M786.952637,738.534302   C803.594116,738.424194 820.235535,738.311829 836.877014,738.206299   C839.512695,738.189575 842.148499,738.203918 845.349243,738.203918   C845.340637,746.416626 846.910583,753.725098 840.650757,760.922485   C824.593384,779.384705 809.481873,798.669006 793.967957,817.604736   C786.711975,826.461060 779.392944,835.265686 772.122314,844.110107   C771.316406,845.090454 770.640930,846.177979 769.274353,848.104736   C795.816223,848.104736 821.494934,848.104736 847.551208,848.104736   C847.551208,855.352417 847.551208,861.886780 847.551208,868.746399   C810.615601,868.746399 773.866150,868.746399 736.469666,868.746399   C736.649231,861.061646 734.826477,853.713440 741.156128,846.553833   C754.446411,831.521118 766.659790,815.538452 779.380493,799.999084   C789.540039,787.588257 799.803345,775.262451 809.994690,762.877563   C810.779785,761.923462 811.359375,760.800293 812.630798,758.832703   C803.787109,758.832703 795.869202,758.832703 787.501587,758.275146   C787.356201,751.321472 783.732422,744.945618 786.952637,738.534302  z"/>
<path fill="#47A3BA" opacity="1.000000" stroke="none" d=" M435.624207,719.497437   C455.912109,719.626404 475.738892,719.740540 495.565704,719.851746   C496.898804,719.859253 498.233337,719.804749 499.564972,719.847900   C509.938660,720.183716 514.974976,724.948975 515.121826,735.326355   C515.326965,749.820190 515.129089,764.319580 515.137573,778.816589   C515.138611,780.643982 515.016174,782.579407 515.569153,784.261536   C515.952515,785.427612 517.330139,787.007446 518.378296,787.099792   C528.999268,788.035583 539.669922,785.450684 539.569763,770.652954   C539.485291,758.172180 539.503174,745.690613 539.507507,733.209351   C539.510620,724.181702 543.571655,719.895813 552.418945,719.864441   C570.583618,719.799988 588.748779,719.897522 606.913513,719.844910   C611.068726,719.832886 614.272949,720.827454 614.563721,725.652039   C614.809570,729.731079 612.189941,731.984070 606.829468,731.991943   C591.500488,732.014465 576.171021,731.937866 560.842407,731.812805   C553.051025,731.749207 552.404602,732.588806 552.439209,740.266602   C552.493103,752.243958 552.835510,764.285034 551.775757,776.185120   C550.598267,789.408752 538.999939,799.002197 525.810303,799.128845   C519.980408,799.184814 514.145447,798.989624 508.320312,799.162292   C504.431519,799.277527 502.855225,797.540039 502.859924,793.823730   C502.879730,778.167603 502.772339,762.510925 502.875549,746.855530   C502.973175,732.052673 503.063690,731.927490 488.460205,731.886536   C466.967316,731.826294 445.473816,731.973572 423.980560,732.008423   C422.320099,732.011108 420.129211,732.451111 419.112152,731.591125   C417.168427,729.947815 414.973267,727.675171 414.569000,725.368225   C414.044586,722.375549 416.123901,720.086243 419.689148,719.994873   C424.848145,719.862610 430.005188,719.656372 435.624207,719.497437  z"/>
<path fill="#47A3BA" opacity="1.000000" stroke="none" d=" M573.027832,680.264465   C538.278259,680.366028 503.987244,680.506042 469.696106,680.532410   C461.895721,680.538391 459.415039,678.266296 460.331207,673.026306   C461.037750,668.985107 463.619080,668.089417 467.148468,668.088013   C483.299408,668.081482 499.450317,667.992310 515.601257,667.985596   C538.744873,667.976013 561.889221,667.937744 585.031189,668.141541   C587.408813,668.162476 590.624512,669.062866 591.972656,670.742188   C595.175171,674.731506 592.832886,679.472778 587.439636,680.077576   C582.839539,680.593567 578.141174,680.234009 573.027832,680.264465  z"/>
<path fill="#47A3BA" opacity="1.000000" stroke="none" d=" M489.581116,834.980957   C489.586700,838.804443 489.676605,842.133362 489.587311,845.457520   C489.467346,849.924744 486.554016,853.375793 482.986359,853.467285   C479.312653,853.561646 476.842407,850.420715 476.841125,845.430725   C476.833771,816.988220 476.864838,788.545776 476.866669,760.103271   C476.866852,757.111328 476.645142,754.116150 476.729858,751.128235   C476.879700,745.844421 478.535583,744.306335 483.639191,744.101685   C488.675964,743.899780 489.886383,747.105286 489.959686,751.158936   C490.058838,756.642517 489.949005,762.130005 489.921783,767.615784   C489.811188,789.905334 489.697876,812.194824 489.581116,834.980957  z"/>
<path fill="#47A3BA" opacity="1.000000" stroke="none" d=" M454.434235,705.592834   C450.380798,699.478088 452.381500,694.729431 459.265045,694.473389   C468.743744,694.120911 478.247772,694.474609 487.740997,694.483337   C508.235352,694.502258 528.729675,694.487488 549.224060,694.507202   C551.220886,694.509155 553.222168,694.595398 555.213257,694.748413   C558.273926,694.983826 560.188721,696.349365 560.165466,699.759521   C560.142944,703.067444 559.471924,705.842285 555.521851,706.169922   C551.710938,706.486084 547.886475,706.830139 544.067932,706.830322   C516.409912,706.831665 488.751831,706.768738 461.094086,706.653564   C458.970062,706.644775 456.848358,706.079651 454.434235,705.592834  z"/>
<path fill="#3DA0C5" opacity="1.000000" stroke="none" d=" M633.217651,912.725342   C637.647034,918.114441 641.850281,923.227356 646.053589,928.340271   C646.421265,928.278992 646.789001,928.217712 647.156677,928.156433   C647.156677,919.707031 647.156677,911.257568 647.156677,902.406799   C651.317749,902.406799 654.687622,902.406799 658.384583,902.406799   C658.384583,917.869263 658.384583,933.249451 658.384583,948.545715   C652.773987,950.004700 648.718079,949.008911 645.289734,944.075745   C640.938782,937.815002 635.708557,932.164124 630.833801,926.269775   C629.823975,925.048828 628.710266,923.913635 626.556519,921.539856   C626.556519,931.516602 626.556519,939.996643 626.556519,948.772278   C622.577087,948.772278 619.319763,948.772278 615.618896,948.772278   C615.618896,933.446533 615.618896,918.095032 615.618896,902.479736   C620.619263,901.341248 625.199890,901.219604 628.315857,906.618774   C629.546631,908.751343 631.414001,910.516602 633.217651,912.725342  z"/>
<path fill="#0F5DAF" opacity="1.000000" stroke="none" d=" M1048.652100,936.351685   C1047.600220,940.475708 1046.975952,944.464355 1046.304443,948.754272   C1043.203979,948.754272 1039.941406,948.754272 1036.166504,948.754272   C1036.037476,947.081665 1035.812866,945.495117 1035.808716,943.908020   C1035.776611,931.575195 1035.896973,919.240540 1035.714844,906.910278   C1035.662476,903.362793 1036.471802,901.682739 1040.383179,901.909180   C1047.526611,902.322693 1054.721680,902.043762 1061.835815,902.699585   C1068.860596,903.347107 1074.131714,907.055908 1076.040283,914.168945   C1077.920898,921.177673 1076.568237,927.461609 1070.315674,931.911560   C1067.990967,933.566040 1067.913940,935.080261 1069.529053,937.264771   C1072.072998,940.705627 1074.421021,944.291260 1076.926880,947.924316   C1068.853027,950.535034 1066.125977,949.845398 1062.040161,943.429199   C1058.930420,938.545898 1055.849243,934.240173 1048.652100,936.351685  M1053.474854,910.941528   C1052.813721,910.940735 1052.051636,910.725403 1051.510498,910.979797   C1049.962769,911.707275 1047.225830,912.625183 1047.225586,913.468872   C1047.224365,917.902222 1047.917358,922.336426 1048.418945,926.764771   C1048.431152,926.872192 1049.023438,926.989014 1049.339844,926.975586   C1052.958496,926.821777 1056.663818,927.070740 1060.169800,926.352356   C1063.734375,925.621948 1065.726562,922.834473 1065.654053,919.055664   C1065.584106,915.403198 1063.876465,912.632263 1060.274658,911.578125   C1058.411987,911.033020 1056.360596,911.132996 1053.474854,910.941528  z"/>
<path fill="#50C4D6" opacity="1.000000" stroke="none" d=" M571.994690,937.123779   C571.996704,941.232239 571.996704,944.872620 571.996704,948.759949   C568.341553,948.759949 565.075562,948.759949 561.457764,948.759949   C561.457764,933.375366 561.457764,917.998352 561.457764,902.332764   C564.889771,902.332764 568.123718,902.332764 571.874939,902.332764   C571.874939,908.300659 571.874939,914.066956 571.874939,920.236816   C579.111206,920.236816 585.846741,920.236816 593.301758,920.236816   C593.301758,914.424927 593.301758,908.521973 593.301758,902.353455   C597.102478,902.353455 600.199097,902.353455 603.741394,902.353455   C603.741394,917.687744 603.741394,933.064514 603.741394,948.725464   C600.584961,948.725464 597.327820,948.725464 593.492126,948.725464   C593.492126,942.593567 593.492126,936.513550 593.492126,930.189575   C586.163025,930.189575 579.407532,930.189575 571.992676,930.189575   C571.992676,932.433289 571.992676,934.544556 571.994690,937.123779  z"/>
<path fill="#47A3BA" opacity="1.000000" stroke="none" d=" M526.730530,846.017639   C523.523987,849.225525 520.874939,852.887146 517.290833,854.743530   C513.261230,856.830566 511.317627,859.177124 511.816437,863.587524   C512.021790,865.403442 512.120728,867.233826 512.387817,869.039856   C512.999023,873.172607 511.502136,875.958862 507.258606,876.665405   C502.668274,877.429749 499.873718,875.375671 499.513885,870.543213   C499.157593,865.757935 499.021851,860.868530 499.599274,856.123413   C500.334351,850.082581 504.983521,846.781372 509.984436,844.260010   C515.092957,841.684448 518.130737,833.836182 515.047119,829.176392   C514.127136,827.786194 511.366302,827.677673 509.525452,826.818054   C506.996704,825.637146 503.314941,824.921875 502.293915,822.908325   C499.696747,817.786499 502.459015,814.268066 508.329498,814.020325   C508.495575,814.013306 508.661957,814.014893 508.828217,814.012329   C524.540588,813.769775 527.722595,816.870056 527.696838,832.815857   C527.689941,837.102478 527.163269,841.388367 526.730530,846.017639  z"/>
<path fill="#50C4D6" opacity="1.000000" stroke="none" d=" M477.978149,916.947998   C477.709137,919.750854 478.197876,921.114685 481.099701,921.015625   C487.063019,920.812195 493.038116,920.954468 499.342957,920.954468   C499.342957,923.758728 499.342957,926.178467 499.342957,929.193848   C492.446014,929.193848 485.535522,929.193848 478.300934,929.193848   C478.300934,933.013550 478.300934,936.245483 478.300934,939.901306   C486.518494,939.901306 494.622559,939.901306 503.033875,939.901306   C503.033875,943.071106 503.033875,945.826721 503.033875,948.817749   C491.117981,948.817749 479.351440,948.817749 467.254639,948.817749   C467.254639,933.316467 467.254639,917.914185 467.254639,902.250427   C478.815918,902.250427 490.262024,902.250427 502.179260,902.250427   C502.179260,904.948425 502.179260,907.622986 502.179260,910.768372   C494.263519,910.768372 486.501678,910.768372 477.978088,910.768372   C477.978088,912.972168 477.978088,914.725342 477.978149,916.947998  z"/>
<path fill="#0F5DAF" opacity="1.000000" stroke="none" d=" M999.088501,949.055420   C996.292053,949.055786 993.981262,949.055786 991.338379,949.055786   C991.082336,947.532471 990.695740,946.290649 990.692139,945.047791   C990.655029,932.238037 990.801697,919.426270 990.613403,906.619263   C990.556824,902.772888 991.990845,901.830566 995.587219,901.926270   C1004.065735,902.151978 1012.555359,902.074951 1021.038391,901.959900   C1024.379150,901.914673 1026.658813,902.060364 1026.633057,906.586243   C1026.605713,911.364990 1023.847168,910.976196 1020.760681,910.948730   C1015.770203,910.904297 1010.772766,911.101746 1005.789856,910.905090   C1001.231628,910.725098 1001.950073,913.811890 1001.753052,916.596436   C1001.533081,919.705872 1002.494934,921.150635 1005.921265,921.007568   C1011.534119,920.773132 1017.163879,920.944092 1023.099060,920.944092   C1023.099060,923.866577 1023.099060,926.280029 1023.099060,929.527954   C1017.365784,929.527954 1011.759033,929.721375 1006.173096,929.464233   C1002.008484,929.272522 1001.658569,931.523254 1001.716492,934.757568   C1001.772217,937.861450 1001.831726,940.273254 1006.112854,940.100525   C1012.894409,939.826843 1019.695129,940.027527 1026.886719,940.027527   C1026.886719,943.126587 1026.886719,945.699707 1026.886719,949.055115   C1017.727173,949.055115 1008.650696,949.055115 999.088501,949.055420  z"/>
<path fill="#0F5DAF" opacity="1.000000" stroke="none" d=" M942.256653,935.985046   C942.271729,925.821533 942.390686,916.154053 942.249084,906.490479   C942.199585,903.110413 943.178223,901.610962 946.787170,901.840637   C954.418091,902.326172 962.135376,902.018555 969.688416,903.013733   C978.110657,904.123474 982.945190,910.261414 983.191589,918.476074   C983.436707,926.647034 978.867432,932.933289 970.781250,934.990601   C967.748474,935.762268 964.529907,936.007874 961.385071,936.094421   C953.435303,936.313293 953.441650,936.222778 953.307068,944.426636   C953.285522,945.742615 953.145996,947.056641 953.038208,948.723755   C949.636841,948.723755 946.398071,948.723755 942.258057,948.723755   C942.258057,944.642761 942.258057,940.562683 942.256653,935.985046  M958.603760,927.028015   C961.403442,926.747559 964.648865,927.244446 966.876709,925.966797   C969.080688,924.703003 971.447693,921.701111 971.552612,919.363342   C971.659241,916.987854 969.562561,912.976807 967.595703,912.364563   C963.490540,911.086426 958.761169,911.095642 954.469849,911.756226   C953.640991,911.883789 953.619324,917.397949 953.274597,920.432861   C953.181213,921.254395 953.358276,922.107666 953.256348,922.927063   C952.825134,926.393616 954.646545,927.354065 958.603760,927.028015  z"/>
<path fill="#2987C1" opacity="1.000000" stroke="none" d=" M862.409302,930.870117   C862.232910,933.996277 862.232910,936.634888 862.232910,939.884033   C870.657043,939.884033 878.734497,939.884033 887.196655,939.884033   C887.196655,943.069702 887.196655,945.637024 887.196655,948.623047   C875.386169,948.623047 863.666382,948.623047 851.361267,948.623047   C851.277588,947.120178 851.114990,945.524536 851.111511,943.928467   C851.085144,931.768616 851.283508,919.603943 850.984192,907.451355   C850.873108,902.938599 852.379211,901.796875 856.693359,901.931274   C866.468628,902.235718 876.259766,902.027161 885.891113,902.027161   C887.935608,910.429443 887.627808,910.833618 879.717712,910.860352   C875.886414,910.873291 872.055115,910.865540 868.223877,910.883728   C861.940125,910.913574 861.930237,910.919617 862.122314,917.372864   C862.151489,918.355103 862.320557,919.333130 862.492065,920.943970   C869.445740,920.943970 876.339539,920.943970 883.521484,920.943970   C883.521484,923.846130 883.521484,926.106689 883.521484,928.768921   C876.547913,929.306396 869.566833,929.844482 862.409302,930.870117  z"/>
<path fill="#0F5DAF" opacity="1.000000" stroke="none" d=" M1133.811279,949.180725   C1131.954834,948.689148 1130.486572,948.363892 1129.086426,947.852234   C1121.369263,945.032532 1121.139282,944.226135 1125.436768,937.700623   C1131.355591,938.840393 1136.940430,940.162292 1142.601074,940.912842   C1145.950806,941.357056 1149.350098,940.032959 1149.721802,936.262451   C1150.095825,932.469116 1146.568359,931.763733 1143.641602,930.926758   C1139.329712,929.693787 1134.931152,928.653687 1130.773560,927.014038   C1121.796875,923.473816 1120.316895,911.407288 1127.977539,905.496216   C1134.543701,900.429749 1149.474609,899.661682 1156.653931,904.020996   C1159.432007,905.707947 1159.384521,906.237000 1155.737793,912.705078   C1152.997314,911.984375 1150.204834,910.934326 1147.326904,910.581360   C1144.402466,910.222656 1141.259521,910.040405 1138.472534,910.772095   C1136.821167,911.205688 1134.925537,913.398193 1134.564453,915.101807   C1134.328247,916.216187 1136.370728,918.555420 1137.868408,919.152161   C1141.865723,920.744751 1146.132080,921.652466 1150.269409,922.905457   C1157.761353,925.174255 1161.182007,929.147705 1161.079590,935.356201   C1160.973755,941.768250 1157.220093,946.714294 1149.994385,948.206726   C1144.885254,949.262024 1139.495239,948.958130 1133.811279,949.180725  z"/>
<path fill="#3DA0C5" opacity="1.000000" stroke="none" d=" M767.563477,906.159485   C773.944641,920.417236 780.161316,934.330566 786.715088,948.998474   C783.058289,948.998474 780.054077,949.373047 777.225220,948.831360   C775.924011,948.582153 774.389038,946.710754 773.957214,945.275085   C772.411377,940.136108 769.305237,938.074890 764.010254,938.958679   C762.231201,939.255493 760.339661,939.195557 758.537659,938.980103   C752.368713,938.242310 747.462280,939.213745 746.064697,946.542358   C745.870728,947.559448 743.803284,948.700439 742.464844,948.912964   C740.050720,949.296448 737.531921,949.021423 734.596069,949.021423   C734.960388,947.597839 735.083191,946.504822 735.509094,945.546326   C741.374329,932.344055 747.373596,919.200317 753.109314,905.942322   C754.452759,902.836792 756.234863,901.663940 759.531128,901.987976   C762.701172,902.299683 766.457153,901.047913 767.563477,906.159485  M759.628052,930.721680   C762.034180,930.721680 764.440308,930.721680 767.773987,930.721680   C765.125732,924.388550 762.932129,919.142639 760.224976,912.668579   C757.542236,919.280640 755.354248,924.673279 752.901123,930.719482   C755.473022,930.719482 757.114319,930.719482 759.628052,930.721680  z"/>
<path fill="#2987C1" opacity="1.000000" stroke="none" d=" M914.132751,915.940552   C916.721863,913.231018 919.077393,910.460205 921.188782,907.514404   C925.586670,901.378357 927.401917,900.721069 935.958191,902.980103   C931.517029,909.195618 927.345520,915.370850 922.793274,921.251465   C920.749512,923.891663 921.015869,925.694336 922.904419,928.198059   C927.794861,934.681824 932.416870,941.368103 937.228577,948.088867   C928.014709,950.484314 925.874695,949.708862 920.887939,942.488220   C918.826172,939.502808 916.717712,936.549683 914.074768,932.791687   C911.598145,936.316223 908.949585,938.994995 907.602966,942.217773   C904.301758,950.118103 898.194275,949.588745 890.830078,948.511475   C895.789673,941.642883 900.265625,935.094116 905.135986,928.853333   C907.422180,925.923767 907.256226,923.836060 905.060608,921.003357   C900.589600,915.235107 896.463379,909.199463 892.138611,903.195496   C899.159119,900.526123 903.338562,901.704834 907.165771,907.046936   C909.295898,910.020142 911.575989,912.885925 914.132751,915.940552  z"/>
<path fill="#50C4D6" opacity="1.000000" stroke="none" d=" M553.296082,909.779663   C551.203125,911.872620 549.288147,913.690369 547.415405,915.468018   C539.051880,909.187683 529.739441,908.173645 523.174194,916.181946   C518.429382,921.969604 519.157288,931.050476 524.486877,936.261902   C530.322998,941.968384 538.792053,941.726929 547.010498,935.316772   C549.140076,937.175598 551.346191,939.101135 553.542908,941.018494   C545.168579,951.739868 527.522461,952.746338 516.836304,943.333740   C506.840759,934.529358 506.348083,917.758057 515.809753,908.386963   C525.872070,898.420898 544.016357,898.959167 553.296082,909.779663  z"/>
<path fill="#3DA0C5" opacity="1.000000" stroke="none" d=" M688.986572,922.650391   C690.652466,911.819397 696.411804,904.901672 706.707336,902.296204   C716.722778,899.761658 725.775635,901.536072 733.591614,909.473999   C731.334717,911.606018 729.319275,913.510010 727.380127,915.341919   C715.119812,908.944458 708.021240,909.325806 702.736877,916.500427   C698.343323,922.465637 699.174316,931.517029 704.578979,936.565186   C710.236572,941.849731 718.813232,941.500366 726.788086,935.356567   C728.903381,937.185181 731.101257,939.085205 733.277283,940.966248   C727.679382,948.717834 715.753662,951.829590 705.616272,948.425964   C694.207947,944.595520 688.691772,936.191406 688.986572,922.650391  z"/>
<path fill="#50C4D6" opacity="1.000000" stroke="none" d=" M786.496216,738.434204   C783.732422,744.945618 787.356201,751.321472 787.122681,758.141296   C771.412048,758.630859 755.630676,758.696838 739.271606,758.301025   C738.498962,751.715027 738.303955,745.590759 738.108948,739.466492   C738.108948,739.466492 738.085571,739.182312 738.325073,739.069458   C738.757996,738.889771 738.872192,738.755432 738.907104,738.553650   C754.617981,738.480469 770.328918,738.407288 786.496216,738.434204  z"/>
<path fill="#0F5DAF" opacity="1.000000" stroke="none" d=" M1079.271484,908.658447   C1078.172607,903.099182 1080.345459,901.617920 1085.395386,901.821533   C1094.689697,902.196228 1104.009888,901.933411 1113.319214,901.933228   C1120.927002,901.933044 1120.971069,901.986023 1119.633423,910.873047   C1116.567871,910.873047 1113.316040,911.038147 1110.088501,910.829285   C1106.459473,910.594360 1105.064819,911.915833 1105.149048,915.670410   C1105.353882,924.808960 1105.212036,933.955261 1105.210083,943.098450   C1105.209717,944.899902 1105.209961,946.701355 1105.209961,948.411316   C1094.305908,950.181274 1094.308105,950.181274 1094.306763,939.947632   C1094.305664,931.968140 1094.186523,923.986572 1094.341187,916.010132   C1094.417358,912.087585 1092.742554,910.848938 1088.968506,910.757263   C1085.742432,910.678772 1082.538818,909.673706 1079.271484,908.658447  z"/>
<path fill="#50C4D6" opacity="1.000000" stroke="none" d=" M423.266296,910.923462   C416.884460,909.615295 421.310669,905.332092 419.785034,902.276855   C433.779022,902.276855 447.161560,902.276855 460.816101,902.276855   C460.816101,905.055237 460.816101,907.643799 460.816101,910.853638   C455.987732,910.853638 451.246033,910.853638 446.189209,910.853638   C446.189209,923.763367 446.189209,936.060974 446.189209,948.705505   C442.487244,948.705505 439.106323,948.705505 435.121735,948.705505   C435.121735,936.354248 435.121735,923.968201 435.121735,910.926575   C430.944061,910.926575 427.339264,910.926575 423.266296,910.923462  z"/>
<path fill="#2987C1" opacity="1.000000" stroke="none" d=" M816.390869,940.028809   C819.650696,940.028503 822.466248,940.028503 825.712280,940.028503   C825.712280,943.027039 825.712280,945.733459 825.712280,948.747314   C814.479980,948.747314 803.267761,948.747314 791.729370,948.747314   C791.729370,933.315735 791.729370,918.081604 791.729370,902.414185   C795.190857,902.414185 798.555481,902.414185 802.553345,902.414185   C802.553345,914.811096 802.553345,927.035095 802.553345,940.029114   C807.427063,940.029114 811.686768,940.029114 816.390869,940.028809  z"/>
<path fill="#47A3BA" opacity="1.000000" stroke="none" d=" M539.183228,830.994995   C539.156372,825.010254 539.058044,819.524414 539.137878,814.041077   C539.205505,809.397156 541.895630,806.637512 546.040649,806.682373   C549.859802,806.723694 552.374023,809.580750 552.395813,814.093994   C552.446289,824.543945 552.480408,834.994385 552.424927,845.444153   C552.400024,850.127808 549.558044,852.928772 545.076111,852.987427   C541.373962,853.035828 539.084778,850.249695 539.057617,845.452332   C539.031311,840.800232 539.139771,836.147461 539.183228,830.994995  z"/>
<path fill="#47A3BA" opacity="1.000000" stroke="none" d=" M625.213806,706.927551   C616.140930,706.906677 607.483398,706.889099 598.827271,706.772095   C597.013977,706.747559 594.664490,706.983582 593.516541,705.993225   C591.600708,704.340576 589.405457,701.826233 589.340515,699.615479   C589.294250,698.044678 592.495972,695.057129 594.354492,694.969971   C604.984985,694.471252 615.659180,694.381104 626.288147,694.846680   C628.246887,694.932434 631.247986,697.949646 631.697083,700.055359   C632.557861,704.091431 629.738770,706.433167 625.213806,706.927551  z"/>
<path fill="#3DA0C5" opacity="1.000000" stroke="none" d=" M680.758911,926.999939   C680.759460,934.453125 680.759460,941.406433 680.759460,948.703491   C677.088684,948.703491 673.850769,948.703491 669.873474,948.703491   C669.873474,941.049622 669.873474,933.321167 669.873474,925.592773   C669.873474,917.967896 669.873474,910.342957 669.873474,902.352905   C673.647583,902.352905 677.009216,902.352905 680.758362,902.352905   C680.758362,910.580811 680.758362,918.540405 680.758911,926.999939  z"/>
<path fill="#47A3BA" opacity="1.000000" stroke="none" d=" M396.138916,678.871948   C392.296265,672.471375 394.195465,668.429565 400.986969,668.175537   C405.957733,667.989624 410.943634,668.082703 415.919403,668.197632   C419.765045,668.286438 422.394257,670.098938 422.297638,674.227539   C422.205902,678.147034 419.850464,680.515564 415.945557,680.394958   C409.416931,680.193237 402.901459,679.563965 396.138916,678.871948  z"/>
<path fill="#47A3BA" opacity="1.000000" stroke="none" d=" M407.877869,694.456543   C411.312988,694.579773 414.313416,694.624329 417.302032,694.835815   C420.198334,695.040710 422.502441,695.923401 422.485138,699.547729   C422.468536,703.021362 421.808624,706.333191 417.802887,706.582520   C411.677002,706.963867 405.460999,707.067810 399.386139,706.380249   C397.576904,706.175415 394.866089,702.948059 394.832642,701.065430   C394.797729,699.098145 397.096191,696.248108 399.093353,695.303345   C401.476105,694.176208 404.622437,694.663269 407.877869,694.456543  z"/>
<path fill="#47A3BA" opacity="1.000000" stroke="none" d=" M626.207764,668.256348   C630.398926,668.661987 633.046143,670.324463 632.877258,674.511597   C632.698120,678.953491 629.524292,680.425293 625.742126,680.568787   C621.101868,680.744751 616.438232,680.658630 611.799683,680.408325   C608.175659,680.212891 605.854553,678.351135 606.082031,674.363342   C606.288513,670.743347 607.963135,668.321838 611.854431,668.235046   C616.501160,668.131409 621.152039,668.213440 626.207764,668.256348  z"/>
<path fill="#0F5DAF" opacity="1.000000" stroke="none" d=" M434.407471,676.567566   C439.892670,674.612854 443.455078,675.695251 445.705017,679.918457   C447.625122,683.522522 446.679169,686.711182 443.740234,689.312073   C440.077057,692.553833 435.715210,692.386353 432.649536,689.020691   C429.488953,685.550781 430.072174,680.695496 434.407471,676.567566  M440.849884,688.789062   C445.454681,684.895081 445.587128,679.627075 440.881592,678.380737   C438.833466,677.838257 435.795380,678.518860 434.150208,679.828735   C433.000183,680.744324 432.872559,683.807129 433.312805,685.668579   C434.110382,689.040710 436.967987,689.601562 440.849884,688.789062  z"/>
<path fill="#3DA0C5" opacity="1.000000" stroke="none" d=" M737.982666,739.814758   C738.303955,745.590759 738.498962,751.715027 738.807007,758.203979   C738.548462,755.526672 738.023987,752.493347 737.848206,749.440063   C737.670715,746.358093 737.839355,743.256165 737.982666,739.814758  z"/>
<path fill="#3DA0C5" opacity="1.000000" stroke="none" d=" M738.739380,738.461304   C738.872192,738.755432 738.757996,738.889771 738.428284,738.971130   C738.170715,738.682556 738.263916,738.476990 738.739380,738.461304  z"/>
<path fill="#000000" opacity="1.000000" stroke="none" d=" M1032.206543,766.137939   C1052.581909,751.848328 1088.396240,755.332825 1101.430298,783.986145   C1108.909180,800.427368 1105.155396,822.994202 1092.258423,836.476562   C1076.296631,853.163025 1048.893555,851.393127 1034.135620,842.781921   C1009.960144,828.675476 1005.003906,785.150696 1032.206543,766.137939  z"/>
<path fill="#000000" opacity="1.000000" stroke="none" d=" M1053.934570,910.941528   C1056.360596,911.132996 1058.411987,911.033020 1060.274658,911.578125   C1063.876465,912.632263 1065.584106,915.403198 1065.654053,919.055664   C1065.726562,922.834473 1063.734375,925.621948 1060.169800,926.352356   C1056.663818,927.070740 1052.958496,926.821777 1049.339844,926.975586   C1049.023438,926.989014 1048.431152,926.872192 1048.418945,926.764771   C1047.917358,922.336426 1047.224365,917.902222 1047.225586,913.468872   C1047.225830,912.625183 1049.962769,911.707275 1051.510498,910.979797   C1052.051636,910.725403 1052.813721,910.940735 1053.934570,910.941528  z"/>
<path fill="#000000" opacity="1.000000" stroke="none" d=" M958.147888,927.022278   C954.646545,927.354065 952.825134,926.393616 953.256348,922.927063   C953.358276,922.107666 953.181213,921.254395 953.274597,920.432861   C953.619324,917.397949 953.640991,911.883789 954.469849,911.756226   C958.761169,911.095642 963.490540,911.086426 967.595703,912.364563   C969.562561,912.976807 971.659241,916.987854 971.552612,919.363342   C971.447693,921.701111 969.080688,924.703003 966.876709,925.966797   C964.648865,927.244446 961.403442,926.747559 958.147888,927.022278  z"/>
<path fill="#000000" opacity="1.000000" stroke="none" d=" M759.191895,930.720581   C757.114319,930.719482 755.473022,930.719482 752.901123,930.719482   C755.354248,924.673279 757.542236,919.280640 760.224976,912.668579   C762.932129,919.142639 765.125732,924.388550 767.773987,930.721680   C764.440308,930.721680 762.034180,930.721680 759.191895,930.720581  z"/>
<path fill="#50C4D6" opacity="1.000000" stroke="none" d=" M440.460968,688.939087   C436.967987,689.601562 434.110382,689.040710 433.312805,685.668579   C432.872559,683.807129 433.000183,680.744324 434.150208,679.828735   C435.795380,678.518860 438.833466,677.838257 440.881592,678.380737   C445.587128,679.627075 445.454681,684.895081 440.460968,688.939087  z"/>
</svg>